Patient4_TMGait_0pt8_01_left_41_GRF.mot
version=1
nRows=32
nColumns=19
inDegrees=no
endheader
time	F1x	F1y	F1z	M1x	M1y	M1z	F2x	F2y	F2z	M2x	M2y	M2z	EC1x	EC1y	EC1z	EC2x	EC2y	EC2z
45.44	8.0916	-16.7178	-4.6525	3.6335	4.2594	-4.7741	-18.4816	701.8661	-99.1662	253.9916	107.7552	802.9291	-0.0592	0.0182	-0.0073	-0.0462	0.0165	0.9585
45.4511	5.3712	-10.365	-3.0323	2.1488	2.7144	-2.3252	-24.322	692.3168	-89.3739	250.3819	102.0943	791.9437	-0.0592	0.0182	-0.0073	-0.0462	0.0165	0.9585
45.4623	3.0773	-4.9904	-1.692	0.88706	1.4332	-0.20674	-28.6849	685.156	-80.7515	247.7994	96.6668	782.1618	-0.0592	0.0182	-0.0073	-0.0462	0.0165	0.9585
45.4734	1.3394	-0.87774	-0.67477	-0.085987	0.45494	1.4668	-31.1657	681.1655	-73.7102	246.6025	91.629	774.3315	-0.0592	0.0182	-0.0073	-0.0462	0.0165	0.9585
45.4846	0.12611	1.9799	0.015687	-0.77286	-0.22066	2.6713	-31.5923	680.6352	-68.2112	246.9542	86.8989	768.7832	-0.0592	0.0182	-0.0073	-0.0462	0.0165	0.9585
45.4957	-0.63176	3.7602	0.44423	-1.2126	-0.65098	3.4622	-29.8762	683.6852	-64.006	248.9319	82.27	765.6992	-0.0592	0.0182	-0.0073	-0.0462	0.0165	0.9585
45.5069	-1.0669	4.7204	0.6778	-1.4595	-0.90136	3.934	-25.9673	690.3724	-60.6974	252.5801	77.4277	765.2071	-0.0592	0.0182	-0.0073	-0.0462	0.0165	0.9585
45.518	-1.2833	5.0689	0.78406	-1.5549	-1.0334	4.1339	-19.8849	700.9393	-57.9787	257.981	72.1573	767.6405	-0.0592	0.0182	-0.0073	-0.0462	0.0165	0.9585
45.5291	-1.3892	5.0265	0.82973	-1.5423	-1.1165	4.1545	-11.8018	715.6646	-55.5783	265.2	66.3255	773.4201	-0.0592	0.0182	-0.0073	-0.0462	0.0165	0.9585
45.5403	-1.458	4.6866	0.85311	-1.4337	-1.1929	3.9528	-2.141	734.5191	-53.4552	274.1446	60.092	782.7356	-0.0592	0.0182	-0.0073	-0.0462	0.0165	0.9585
45.5514	-1.5461	4.1007	0.90392	-1.2323	-1.3203	3.5125	8.4772	756.8754	-51.6859	284.4508	53.7999	795.2347	-0.0592	0.0182	-0.0073	-0.0462	0.0165	0.9585
45.5626	-1.6466	3.2368	0.98533	-0.92757	-1.4976	2.7126	19.2257	781.2089	-50.4945	295.3979	47.9899	809.7408	-0.0592	0.0182	-0.0073	-0.0462	0.0165	0.9585
45.5737	-1.7768	2.0531	1.1007	-0.50416	-1.7259	1.4779	29.2796	805.3777	-50.1201	306.0181	43.2096	824.4898	-0.0592	0.0182	-0.0073	-0.0462	0.0165	0.9585
45.5849	-1.8583	0.49975	1.2238	0.048093	-1.9446	-0.29214	37.8658	826.8165	-50.6772	315.2148	39.8512	837.2505	-0.0592	0.0182	-0.0073	-0.0462	0.0165	0.9585
45.596	-1.8505	-1.3951	1.3047	0.71606	-2.0683	-2.5611	44.4672	843.0513	-52.103	321.9706	38.0432	845.827	-0.0592	0.0182	-0.0073	-0.0462	0.0165	0.9585
45.6071	-1.6065	-3.5192	1.2802	1.4533	-1.9584	-5.2037	48.884	852.1046	-54.1363	325.5188	37.6181	848.4054	-0.0592	0.0182	-0.0073	-0.0462	0.0165	0.9585
45.6183	-0.98583	-5.5569	1.0212	2.1431	-1.4021	-7.7851	51.1727	852.8413	-56.4595	325.4741	38.2539	843.9	-0.0592	0.0182	-0.0073	-0.0462	0.0165	0.9585
45.6294	0.22407	-6.9517	0.39965	2.5806	-0.15886	-9.6063	51.6692	845.2558	-58.7523	321.9152	39.5384	832.2393	-0.0592	0.0182	-0.0073	-0.0462	0.0165	0.9585
45.6406	2.2177	-6.7596	-0.77834	2.4283	2.0726	-9.4547	50.7603	830.2619	-60.7986	315.3014	41.1269	814.1665	-0.0592	0.0182	-0.0073	-0.0462	0.0165	0.9585
45.6517	5.177	-3.6771	-2.6501	1.2226	5.5285	-5.7017	48.9699	809.5793	-62.47	306.3981	42.7198	791.1596	-0.0592	0.0182	-0.0073	-0.0462	0.0165	0.9585
45.6629	9.1237	3.9924	-5.3487	-1.635	10.3672	3.8025	46.7989	785.249	-63.7037	296.0927	44.0745	764.9961	-0.0592	0.0182	-0.0073	-0.0462	0.0165	0.9585
45.674	13.8929	18.1781	-8.8403	-6.8158	16.4756	21.4836	44.745	759.257	-64.4657	285.2338	44.9819	737.3906	-0.0592	0.0182	-0.0073	-0.0462	0.0165	0.9585
45.6851	18.8873	40.7115	-12.9015	-14.948	23.3422	49.6821	43.2062	733.1265	-64.7149	274.4716	45.2569	709.6537	-0.0592	0.0182	-0.0073	-0.0462	0.0165	0.9585
45.6963	23.0236	72.8547	-16.9311	-26.441	29.8069	90.0168	42.4419	707.6217	-64.3811	264.1451	44.7406	682.4386	-0.0592	0.0182	-0.0073	-0.0462	0.0165	0.9585
45.7074	24.5458	114.7487	-19.9626	-41.2906	34.0538	142.7364	42.5604	682.72	-63.3956	254.2641	43.3291	655.7102	-0.0592	0.0182	-0.0073	-0.0462	0.0165	0.9585
45.7186	21.8732	165.4207	-20.9371	-59.0724	34.179	206.6889	43.4914	657.6924	-61.6783	244.5522	40.9813	628.8312	-0.0592	0.0182	-0.0073	-0.0462	0.0165	0.9585
45.7297	14.7681	222.7892	-18.597	-78.954	28.5448	279.2895	45.0089	631.3717	-59.1494	234.5533	37.7169	600.8018	-0.0592	0.0182	-0.0073	-0.0462	0.0165	0.9585
45.7409	4.3587	283.3937	-12.1726	-99.6653	16.6254	356.0386	46.7876	602.3931	-55.7721	223.7256	33.638	570.4641	-0.0592	0.0182	-0.0073	-0.0462	0.0165	0.9585
45.752	-7.6244	342.4711	-2.0452	-119.5955	-0.43279	430.5525	48.4286	569.3427	-51.575	211.51	28.9325	536.6152	-0.0592	0.0182	-0.0073	-0.0462	0.0165	0.9585
45.7631	-19.2842	395.9382	10.3487	-137.4508	-20.0836	497.3146	49.5266	531.1074	-46.6835	197.4533	23.8757	498.3061	-0.0592	0.0182	-0.0073	-0.0462	0.0165	0.9585
45.7743	-29.4957	442.533	23.0841	-152.9255	-39.495	554.4598	49.6745	487.1918	-41.2673	181.3309	18.779	455.1447	-0.0592	0.0182	-0.0073	-0.0462	0.0165	0.9585
45.7854	-37.9207	483.3125	34.6967	-166.5021	-56.7287	603.2372	48.515	437.9232	-35.5625	163.2229	13.985	407.5012	-0.0592	0.0182	-0.0073	-0.0462	0.0165	0.9585
